<svg fill="none" xmlns="http://www.w3.org/2000/svg" viewBox="0 0 562 160"><g clip-path="url(#a)"><path d="M281.138 46.0188c-6.668 0-11.78 1.6892-15.226 5.0899-3.445 3.4007-5.201 8.4461-5.201 15.203 0 6.757 1.734 11.8246 5.201 15.2253 3.468 3.4007 8.535 5.1121 15.226 5.1121 6.69 0 11.758-1.7114 15.247-5.1121 3.49-3.4007 5.201-8.4683 5.201-15.2253 0-6.7569-1.733-11.8245-5.201-15.203-3.467-3.3784-8.557-5.0899-15.247-5.0899Zm9.579 25.8718a9.2004 9.2004 0 0 1-2 3.7563 7.4222 7.4222 0 0 1-3.223 2.1116c-2.833.86-5.857.86-8.69 0a7.4164 7.4164 0 0 1-3.223-2.1116 9.2024 9.2024 0 0 1-2.001-3.7563 19.5055 19.5055 0 0 1-.689-5.6011 19.506 19.506 0 0 1 .689-5.6011 9.093 9.093 0 0 1 2.001-3.7341 7.4162 7.4162 0 0 1 3.223-2.1115 14.9557 14.9557 0 0 1 8.69 0 7.422 7.422 0 0 1 3.223 2.1115 9.0792 9.0792 0 0 1 2 3.7341c.501 1.8237.733 3.7105.689 5.6011a19.4357 19.4357 0 0 1-.689 5.6011Zm-62.124 3.9119-7.69-29.1614h-16.004v39.3412h9.247V55.3984l8.535 30.5839h11.38l8.513-30.5839v30.5839h9.735V46.6411h-16.003l-7.713 29.1614Zm100.065-29.7837c-6.668 0-11.78 1.6892-15.226 5.0899-3.445 3.4007-5.201 8.4461-5.201 15.203 0 6.757 1.734 11.8246 5.201 15.2253 3.468 3.4007 8.535 5.1121 15.226 5.1121 6.69 0 11.758-1.7114 15.225-5.1121 3.467-3.4007 5.223-8.4683 5.223-15.2253 0-6.7569-1.756-11.8245-5.223-15.203-3.467-3.3784-8.535-5.0899-15.225-5.0899Zm9.668 25.8718a9.2004 9.2004 0 0 1-2 3.7563 7.5572 7.5572 0 0 1-3.223 2.1116 15.0484 15.0484 0 0 1-8.713 0 7.6927 7.6927 0 0 1-3.223-2.1116 9.4452 9.4452 0 0 1-1.978-3.7563 19.5055 19.5055 0 0 1-.689-5.6011 19.506 19.506 0 0 1 .689-5.6011 9.3329 9.3329 0 0 1 1.978-3.7341 7.6934 7.6934 0 0 1 3.223-2.1115 15.0484 15.0484 0 0 1 8.713 0 7.556 7.556 0 0 1 3.223 2.1115 9.091 9.091 0 0 1 2 3.7341c.49 1.8258.722 3.7111.689 5.6011a20.2443 20.2443 0 0 1-.689 5.6011Zm45.609 1.4225-13.869-26.672h-12.558v39.3412h9.246V58.7324l14.203 27.2499h12.225V46.6411h-9.247v26.672Zm167.257 4.4898a25.2167 25.2167 0 0 1-4.579-.3779 9.1111 9.1111 0 0 1-3.312-1.2669 6.4057 6.4057 0 0 1-2.223-2.2226 10.6932 10.6932 0 0 1-1.133-3.5119h20.804v-8.2683h-20.804c.179-1.2458.578-2.45 1.178-3.5562a6.533 6.533 0 0 1 2.223-2.2227 9.2406 9.2406 0 0 1 3.311-1.178 27.0962 27.0962 0 0 1 4.557-.3556h10.202v-8.2017h-12.203c-6.682 0-11.632 1.6077-14.847 4.8232-3.216 3.2155-4.845 8.1646-4.89 14.8474 0 6.6977 1.608 11.6468 4.823 14.8474 3.216 3.2007 8.165 4.8084 14.848 4.8232h12.78v-8.1794h-10.735ZM510.673 62.155h-7.357a3.6921 3.6921 0 0 1-1.465-.1984 3.6918 3.6918 0 0 1-1.269-.7573 4.4466 4.4466 0 0 1-.94-2.7339c0-.9906.331-1.9528.94-2.7339a3.6887 3.6887 0 0 1 2.734-.9558h17.648v-8.1349h-19.715a11.9786 11.9786 0 0 0-4.744.5625 11.9763 11.9763 0 0 0-4.147 2.3714 12.063 12.063 0 0 0-2.352 4.1517c-.5 1.5267-.69 3.1378-.56 4.739a12.2275 12.2275 0 0 0 2.912 8.8906 11.9127 11.9127 0 0 0 8.891 2.9784h7.49a3.2893 3.2893 0 0 1 1.513.1314c.487.1611.93.4341 1.293.7969.363.3629.636.8056.797 1.2928.161.4872.206 1.0053.131 1.513.075.5077.03 1.0258-.131 1.513a3.285 3.285 0 0 1-.797 1.2927 3.2924 3.2924 0 0 1-1.293.797 3.2893 3.2893 0 0 1-1.513.1314h-18.204v8.1794h20.138a12.1152 12.1152 0 0 0 4.75-.6149 12.1064 12.1064 0 0 0 4.14-2.4079 12.0135 12.0135 0 0 0 2.427-4.1356c.524-1.5275.734-3.1446.619-4.7551a12.0155 12.0155 0 0 0-.619-4.7551 12.0135 12.0135 0 0 0-2.427-4.1356 12.2883 12.2883 0 0 0-8.89-3.0228Zm-52.011-15.5139-15.136 39.3412h10.513l2.601-7.646h15.18l2.623 7.646h10.758l-15.159-39.3412h-11.38Zm.712 23.627 4.845-14.3585 4.868 14.3585h-9.713Zm-22.716-1.9784a7.9915 7.9915 0 0 0-2.445-1.667 12.1775 12.1775 0 0 0-2.09-.6668 6.9748 6.9748 0 0 0 1.378-.489 6.396 6.396 0 0 0 1.867-1.4002 8.379 8.379 0 0 0 1.623-2.6228c.524-1.3519.766-2.7965.711-4.2453a12.1435 12.1435 0 0 0-.8-4.5565 9.0833 9.0833 0 0 0-2.223-3.3117 9.5252 9.5252 0 0 0-3.578-2.0004 14.7157 14.7157 0 0 0-4.668-.6891H403.34v39.3412h24.294a17.2932 17.2932 0 0 0 4.845-.6223 9.8455 9.8455 0 0 0 3.734-1.867 8.1543 8.1543 0 0 0 2.401-3.3118c.609-1.4478.904-3.0084.866-4.5787a10.5978 10.5978 0 0 0-.844-4.4453 8.8923 8.8923 0 0 0-1.978-2.8673Zm-23.583-13.5805h10.669a4.1793 4.1793 0 0 1 2.934.8891c.351.38.617.8299.782 1.3203.165.4903.224 1.0099.174 1.5247a3.6698 3.6698 0 0 1-.956 2.845 4.1793 4.1793 0 0 1-2.934.8891h-10.669v-7.4682ZM425.5 77.9583h-12.425v-7.7349H425.5a3.3787 3.3787 0 0 1 2.862.9721c.369.3732.645.8271.808 1.3258.163.4986.208 1.0284.131 1.5474a3.3865 3.3865 0 0 1-.113 1.5617c-.16.5045-.436.9645-.805 1.343-.37.3784-.824.6647-1.324.8358a3.3792 3.3792 0 0 1-1.559.1491ZM215.258 126.612a3.999 3.999 0 0 1-1.912-1.044 3.891 3.891 0 0 1-1.044-1.912c-.234-.959-.339-1.946-.312-2.934V104.23h-7.023v17.448c0 7.483 3.704 11.188 11.113 11.113h9.824v-5.934h-7.601a11.086 11.086 0 0 1-3.045-.245Zm26.694-22.382-11.113 28.673h7.668l1.889-5.557h11.114l1.889 5.557h7.846l-11.113-28.673h-8.18Zm.489 17.226 3.556-10.469 3.535 10.469h-7.091Zm81.527-3.734a8.887 8.887 0 0 0-3.032-1.767 8.9172 8.9172 0 0 0-3.48-.456h-5.357a2.717 2.717 0 0 1-1.058-.145c-.34-.119-.652-.303-.92-.544a2.6177 2.6177 0 0 1-.55-.917c-.119-.34-.166-.701-.139-1.061a2.387 2.387 0 0 1 .106-1.074c.118-.345.313-.659.571-.917.257-.257.571-.452.916-.57a2.387 2.387 0 0 1 1.074-.106h12.892v-5.935h-14.359a8.9156 8.9156 0 0 0-3.456.465c-1.11.381-2.134.979-3.012 1.758a8.9033 8.9033 0 0 0-1.758 3.012 8.8961 8.8961 0 0 0-.464 3.456 8.898 8.898 0 0 0 .455 3.48 8.917 8.917 0 0 0 1.767 3.033c.873.787 1.896 1.39 3.007 1.772a8.712 8.712 0 0 0 3.461.45h5.468c.41-.133.846-.167 1.272-.099.426.067.83.235 1.179.488.349.254.633.587.829.971a2.7404 2.7404 0 0 1 0 2.482c-.196.384-.48.716-.829.97s-.753.421-1.179.489c-.426.067-.862.033-1.272-.1h-13.336v5.957h14.67a7.727 7.727 0 0 0 3.51-.332 7.7377 7.7377 0 0 0 2.999-1.855 7.7538 7.7538 0 0 0 1.863-2.994c.382-1.128.499-2.329.341-3.51a8.761 8.761 0 0 0-.447-3.419 8.742 8.742 0 0 0-1.732-2.982Zm-31.606 2.289a5.711 5.711 0 0 0-1.778-1.2 6.9406 6.9406 0 0 0-1.534-.489c.345-.093.68-.22 1-.378.515-.238.977-.578 1.356-1 .517-.564.924-1.22 1.2-1.934.369-.979.543-2.021.512-3.067a9.1155 9.1155 0 0 0-.578-3.334 6.4393 6.4393 0 0 0-1.69-2.401 7.2804 7.2804 0 0 0-2.6-1.467c-1.1-.349-2.247-.521-3.401-.511H268.09v28.673h17.782a13.509 13.509 0 0 0 3.534-.445 7.102 7.102 0 0 0 2.711-1.378 6.1714 6.1714 0 0 0 1.756-2.223c.442-1.062.654-2.206.623-3.356a7.75 7.75 0 0 0-.601-3.245 6.7818 6.7818 0 0 0-1.533-2.245Zm-17.204-9.891h7.78c.796-.081 1.593.15 2.222.645.262.272.461.598.584.955.123.357.166.736.128 1.112.037.379-.007.761-.13 1.122-.122.36-.321.69-.582.967-.629.495-1.426.726-2.222.645h-7.78v-5.446Zm9.069 16.893h-9.069v-5.602h9.069c.743 0 1.455.295 1.98.821.525.525.82 1.237.82 1.98 0 .743-.295 1.455-.82 1.98-.525.525-1.237.821-1.98.821Z" fill="#1A1A1A"/><path d="m144.821 159.752-.022-.022-.022.022h.044Zm-110.0661 0h.0444l-.0222-.022-.0222.022ZM158.624 23.2141a11.979 11.979 0 0 0-11.068 7.3956 11.972 11.972 0 0 0-.682 6.9218 11.9802 11.9802 0 0 0 3.278 6.134 11.985 11.985 0 0 0 6.135 3.2788c2.323.4622 4.732.225 6.921-.6818a11.9849 11.9849 0 0 0 5.377-4.4124 11.9833 11.9833 0 0 0 2.019-6.6558 11.9807 11.9807 0 0 0-11.98-11.9802Zm-46.321 42.2752 9.291 4.312c.316.2265.578.5186.77.8562.192.3376.308.7128.341 1.0998a2.5727 2.5727 0 0 1-.8 2.0893l-3.134 3.045 3.29 3.9119c.221.275.358.6083.393.9594.036.3512-.031.7051-.193 1.0188l-1.6 3.0006 1.889-.7113c.442-.178.936-.178 1.378 0 .427.2075.754.5749.911 1.0225l1.445 4.1563c.182.5311.33 1.073.444 1.6226l14.715 3.9119a52.3083 52.3083 0 0 0-4.033-27.2099 52.3004 52.3004 0 0 0-17.283-21.3998l-11.513 14.1583a15.5549 15.5549 0 0 0 3.689 4.1564Zm-19.9591 9.002 24.1601-29.6726a49.8577 49.8577 0 0 0-4.89-2.5561 51.8309 51.8309 0 0 0-37.7849-2.4449l12.2691 33.6956a10.402 10.402 0 0 1 6.2457.978Zm-8.713 51.7877-20.3374-5.401v5.401h20.3374Zm32.6521-2.623-7.179 2.623h7.179v-2.623Zm-26.4724 14.315a43.2702 43.2702 0 0 0-29.5392 11.113 39.5499 39.5499 0 0 0-8.0238 10.513h10.4687a31.112 31.112 0 0 1 9.6442-10.51 31.1165 31.1165 0 0 1 13.3206-5.103 31.1275 31.1275 0 0 1 14.1979 1.377 31.1332 31.1332 0 0 1 12.092 7.568 31.4835 31.4835 0 0 1 4.956 6.668h10.469a41.9292 41.9292 0 0 0-15.779-16.051 41.9278 41.9278 0 0 0-21.8064-5.575Z" fill="#fff"/><path d="m132.641 144.238-8.624-3.823-1.956-9.38a.5078.5078 0 0 0-.183-.291.5185.5185 0 0 0-.328-.109H58.0264a.5415.5415 0 0 0-.3292.122.536.536 0 0 0-.182.301l-1.9559 9.357-8.624 3.823c-6.0234 2.667-10.0242 7.779-12.158 15.559h12.5803a44.013 44.013 0 0 1 9.9576-13.714 47.5424 47.5424 0 0 1 32.4954-12.336c17.2034 0 34.5624 8.891 42.4304 26.05h12.558c-2.067-7.78-6.134-12.936-12.158-15.559Z" fill="#fff"/><path d="M89.8105 148.328a26.678 26.678 0 0 0-12.3608 3.021 26.6696 26.6696 0 0 0-9.5547 8.404h43.72a29.3085 29.3085 0 0 0-2.89-3.534 26.4506 26.4506 0 0 0-18.9145-7.891Zm-26.028-43.475 5.8679 1.556-8.1795-22.4935a10.6464 10.6464 0 0 0-7.357-6.668l-14.0917-3.7341a52.033 52.033 0 0 0-1.7559 24.4494l25.5162 6.8902Z" fill="#fff"/><path d="m65.5602 82.4035 9.2241 25.3605 19.4261 5.157c2.0765.539 4.2667.446 6.2906-.267l16.225-5.801 4.912-1.778c.472-.167.955-.301 1.445-.4.966-.262 1.957-.426 2.956-.489 1.498-.055 2.995.11 4.445.489l8.358 2.222c.76-2.179 1.377-4.407 1.844-6.668L96.8998 88.5381a10.4464 10.4464 0 0 1-5.7344 5.1343 10.8025 10.8025 0 0 1-3.6008.6446 10.5359 10.5359 0 0 1-9.8686-6.9125 10.5135 10.5135 0 0 1 4.312-12.5136L69.7833 41.3064a51.3 51.3 0 0 0-28.2501 28.139l13.6916 3.5784a15.0243 15.0243 0 0 1 10.3354 9.3797Z" fill="#fff"/><path d="m136.842 110.765-7.446-1.956a10.4032 10.4032 0 0 0-6.268.267l-21.048 7.668c-.778.285-1.582.494-2.4008.623a3.3256 3.3256 0 0 1-.489 0c-.6485.093-1.3013.152-1.956.177h-2.0671c-.5778 0-1.1557-.2-1.7114-.333H92.9l-20.204-5.357h-.2445l-33.1844-8.89a51.361 51.361 0 0 0 2.7561 7.846l49.5877 13.069a21.6706 21.6706 0 0 0 12.9581-.578l29.695-10.824a6.6682 6.6682 0 0 0 2.578-1.712ZM87.5652 77.6031a6.2018 6.2018 0 0 0-5.6814 3.874 6.2011 6.2011 0 1 0 8.075-3.4212 6.2014 6.2014 0 0 0-2.3936-.4528Z" fill="#fff"/><path d="M89.8101 143.972A31.1062 31.1062 0 0 0 74.13 148.2a31.1172 31.1172 0 0 0-11.4142 11.553h5.2455a26.6787 26.6787 0 0 1 8.5437-7.884 26.6876 26.6876 0 0 1 11.0854-3.5 26.6758 26.6758 0 0 1 21.2906 7.849 29.4875 29.4875 0 0 1 2.733 3.535h5.157a31.4581 31.4581 0 0 0-4.956-6.668 30.763 30.763 0 0 0-10.085-6.773 30.754 30.754 0 0 0-11.9199-2.34Z" fill="#1A1A1A"/><path d="M89.8099 133.703a47.5423 47.5423 0 0 0-32.4954 12.336 44.013 44.013 0 0 0-9.9576 13.714h4.8899a39.554 39.554 0 0 1 8.0238-10.513 43.2761 43.2761 0 0 1 29.5393-11.114 41.9101 41.9101 0 0 1 21.7681 5.594 41.9053 41.9053 0 0 1 15.75 16.033h4.913c-7.869-17.159-25.228-26.05-42.4311-26.05Z" fill="#1A1A1A"/><path d="M168.759 47.9079a16.3327 16.3327 0 0 0 5.887-10.7624c.49-4.216-.68-8.4572-3.263-11.8254a16.3336 16.3336 0 0 0-10.573-6.2205 16.3345 16.3345 0 0 0-11.921 2.892l-.356.289a89.2341 89.2341 0 0 0-30.752-17.5321A89.2387 89.2387 0 0 0 48.617 10.35 89.2395 89.2395 0 0 0 4.3749 63.8072 89.2401 89.2401 0 0 0 34.7767 159.73c2.2227-7.712 6.1346-12.825 12.158-15.558l8.6239-3.823 1.956-9.358a.5334.5334 0 0 1 .5112-.422H121.55c.118-.003.234.035.327.108s.158.176.184.292l1.956 9.38 8.624 3.823c6.023 2.667 10.024 7.779 12.158 15.558a88.9009 88.9009 0 0 0 32.345-51.547 88.9107 88.9107 0 0 0-8.385-60.2751Zm-57.145-5.6455a49.8325 49.8325 0 0 1 4.801 2.556L92.3439 74.491a10.4029 10.4029 0 0 0-6.2457-.978L73.8291 39.8174a51.8314 51.8314 0 0 1 37.7849 2.445ZM93.8331 83.804a6.201 6.201 0 0 1-3.8333 5.7313 6.2012 6.2012 0 1 1-2.3457-11.9325 6.1555 6.1555 0 0 1 4.3837 1.811 6.156 6.156 0 0 1 1.3373 2.0153 6.156 6.156 0 0 1 .458 2.3749ZM40.0223 73.513l14.0917 3.6897a10.6464 10.6464 0 0 1 7.357 6.668l8.1795 22.5383-5.8679-1.556-25.5162-6.8906a52.033 52.033 0 0 1 1.7559-24.4494Zm23.2713 52.766v-5.401l20.3374 5.401H63.2936Zm52.9884 0h-7.179l7.179-2.623v2.623Zm17.959-13.803-29.695 10.825a21.6696 21.6696 0 0 1-12.9578.578l-49.6099-13.181a51.2861 51.2861 0 0 1-2.7562-7.846l33.1845 8.891h.2445l20.204 5.357h.5557c.5556.133 1.1335.244 1.7114.333h2.0226a18.8446 18.8446 0 0 0 1.956-.178c.1628.012.3262.012.489 0a12.6753 12.6753 0 0 0 2.4002-.622l21.138-7.557c2.012-.732 4.201-.825 6.268-.267l7.446 1.956a6.6624 6.6624 0 0 1-2.601 1.711Zm4.646-5.623-8.358-2.223a15.417 15.417 0 0 0-4.445-.489c-.999.064-1.99.228-2.956.489-.491.1-.973.233-1.445.4l-4.956 1.823-16.226 5.801a10.7755 10.7755 0 0 1-6.379.289l-19.4261-5.156-9.1352-25.3833a15.0258 15.0258 0 0 0-4.0083-5.9754 15.0265 15.0265 0 0 0-6.3271-3.4265l-13.6916-3.5785a51.3003 51.3003 0 0 1 28.2501-28.1167l12.2247 33.5845a10.5131 10.5131 0 0 0-4.312 12.5136 10.5356 10.5356 0 0 0 9.8686 6.9125 10.8025 10.8025 0 0 0 3.6008-.6446 10.447 10.447 0 0 0 5.7345-5.1343l43.8306 11.6467a52.5396 52.5396 0 0 1-1.844 6.668Zm2.556-10.9577-14.714-3.9563a13.5889 13.5889 0 0 0-.445-1.6226L124.95 86.16a1.7977 1.7977 0 0 0-.911-1.0224 1.8447 1.8447 0 0 0-1.378 0l-1.889.7112 1.6-3.0006c.162-.3136.229-.6676.194-1.0187a1.8293 1.8293 0 0 0-.394-.9594l-3.289-3.9119 3.133-3.0451c.282-.2658.5-.5916.639-.9533s.194-.75.162-1.136a2.687 2.687 0 0 0-.342-1.0997 2.6839 2.6839 0 0 0-.77-.8562l-9.29-4.312a15.5516 15.5516 0 0 1-3.69-4.0897l11.513-14.1584a52.3035 52.3035 0 0 1 17.203 21.3884 52.3012 52.3012 0 0 1 4.002 27.1546v.0445Zm24.16-51.0324a11.9879 11.9879 0 0 1-4.242 1.968 11.9847 11.9847 0 0 1-9.064-1.4134 11.984 11.984 0 0 1-5.41-7.4086 11.9967 11.9967 0 0 1-.195-4.6724 11.9815 11.9815 0 0 1 1.609-4.3914 11.9844 11.9844 0 0 1 3.166-3.4417l.333-.2a11.8473 11.8473 0 0 1 6.668-2.0893 11.9806 11.9806 0 0 1 9.691 4.8899 11.8897 11.8897 0 0 1-1.623 15.8698 12.456 12.456 0 0 1-.933.8891Z" fill="#1A1A1A"/></g><defs><clipPath id="a"><path fill="#fff" d="M.4814.1653h561.49v159.587H.4814z"/></clipPath></defs></svg>