<svg viewBox="0 0 238.6653 41.8005" xml:space="preserve" xmlns="http://www.w3.org/2000/svg"><path style="fill:#000" d="M133.2991 35.3668c0-3.5386.1296-7.1347.288-7.9914 1.126-6.0916 7.2896-10.4475 13.3597-9.4417 5.3608.8883 9.2971 4.9349 10.026 10.3069l.1885 1.389h-5.8177l-.3302-1.376c-.473-1.9718-2.205-3.7764-4.1738-4.3488-1.2358-.3592-1.6835-.3746-2.9118-.0997-1.9652.4398-3.8497 2.165-4.4041 4.032-.2138.7197-.378 1.3877-.3649 1.4844.0131.0967.01 2.944-.008 6.3274l-.0313 6.1516h-5.8208zM17.0147 41.1435C9.229 39.695 2.8917 33.975.7407 26.4546c-.773-2.7021-.9766-7.1789-.4411-9.693C2.4246 6.7854 10.6907 0 20.7189 0c8.0113 0 15.0141 4.3466 18.5367 11.5057 1.4764 3.0005 1.965 4.864 2.1538 8.2129.1103 1.9583.0307 3.2449-.3031 4.8948-.4341 2.1459-1.8668 6.0746-2.2153 6.0746-.092 0-.9602-.787-1.9295-1.7489l-1.7623-1.7488.537-1.4923c.762-2.1181.9305-6.4772.338-8.7455C34.6815 11.6208 30.658 7.327 25.4814 5.648c-4.2943-1.3928-9.4939-.7233-13.2499 1.7061-3.213 2.0783-5.8907 5.7707-6.847 9.442-.5277 2.026-.5224 5.8328.0111 7.9006 1.4275 5.5332 6.0198 10.0057 11.7513 11.4448 2.1478.5393 6.0778.394 8.2766-.3059l1.5295-.4869 1.8425 1.8284c2.1336 2.1173 2.1945 1.9731-1.3297 3.1498-3.6529 1.2196-6.9153 1.4746-10.451.8167zm35.322.024c-4.4377-.9884-8.149-4.8283-8.9725-9.2837-.1584-.8567-.288-4.3933-.288-7.859v-6.3014h5.8208v6.1696c0 7.4464.1657 8.2517 2.0628 10.0262 2.4622 2.3031 5.5831 2.3031 8.0453 0 1.897-1.7745 2.0628-2.5798 2.0628-10.0261v-6.1697h5.8208v6.3014c0 3.4657-.1296 7.0023-.288 7.859-.8472 4.5833-4.7808 8.5168-9.364 9.3641-1.9214.3552-3.0252.337-4.9-.0805zm25.1353 0c-4.4721-.996-8.1209-4.808-8.9903-9.3923-.1485-.7833-.27-4.2653-.27-7.738v-6.3138h5.8208v6.1696c0 7.4464.1656 8.2517 2.0627 10.0262.9263.8665 1.6432 1.2778 2.6466 1.5185l1.376.3301v2.884c0 3.2966.1634 3.1413-2.6458 2.5156zm13.2292 0c-4.4722-.996-8.121-4.808-8.9903-9.3923-.1594-.8402-.2701-6.4537-.2701-13.691V5.8171h5.8208v12.1227c0 14.0445.0008 14.0506 2.0628 15.9793.9263.8665 1.6432 1.2778 2.6465 1.5185l1.3761.3301v2.884c0 3.2966.1634 3.1413-2.6458 2.5156zm13.4938 0c-4.4722-.996-8.121-4.808-8.9904-9.3923-.1485-.7833-.27-4.2653-.27-7.738v-6.3138h5.8208v6.1696c0 7.4464.1657 8.2517 2.0628 10.0262.9262.8665 1.6432 1.2778 2.6465 1.5185l1.376.3301v2.884c0 3.2966.1635 3.1413-2.6457 2.5156zm13.2291 0c-4.4376-.9884-8.1488-4.8283-8.9724-9.2837-.1584-.8567-.288-3.024-.288-4.8163v-3.2587h5.8208v3.127c0 4.115.3833 5.4124 2.0628 6.9834 2.4638 2.3046 5.583 2.3033 8.0489-.003 2.5511-2.3862 2.6607-5.7459.2709-8.3008-.9008-.963-1.5476-1.386-2.5774-1.6854-1.6232-.4718-3.8273.1635-7.1017-1.4894-3.1252-1.5775-5.5888-4.8833-6.2542-8.3921-.1486-.7833-.27-2.9556-.27-4.8275V5.8175h5.8207v3.2652c0 4.0749.363 5.4038 1.9053 6.9758 1.7184 2.049 3.952 1.5256 6.1947 1.913 5.0227.9285 8.8398 4.8385 9.6814 9.917 1.0058 6.0702-3.3501 12.2337-9.4418 13.3598-1.9213.3552-3.0251.337-4.9-.0805zm50.2709 0c-4.4722-.996-8.121-4.808-8.9904-9.3923-.1485-.7833-.27-4.2653-.27-7.738v-6.3138h5.8208v6.1696c0 7.4464.1657 8.2517 2.0628 10.0262.9262.8665 1.6432 1.2778 2.6465 1.5185l1.376.3301v2.884c0 3.2966.1635 3.1413-2.6457 2.5156zm13.2291 0c-4.4376-.9884-8.1488-4.8283-8.9724-9.2837-.1584-.8567-.288-4.3933-.288-7.859v-6.3014h5.8208v6.1696c0 7.4464.1657 8.2517 2.0628 10.0262 2.4622 2.3031 5.5831 2.3031 8.0453 0 1.897-1.7745 2.0628-2.5798 2.0628-10.0261v-6.1697h5.8208v6.3014c0 3.4657-.1296 7.0023-.288 7.859-.8472 4.5833-4.7808 8.5168-9.364 9.3641-1.9214.3552-3.0252.337-4.9-.0805zm15.875-5.933c0-3.4658.1296-7.0024.288-7.859.877-4.7441 4.8854-8.6178 9.7486-9.421 3.334-.5505 6.7543.395 9.491 2.624l1.4098 1.1485 1.1928-1.0995c4.1702-3.844 11.248-3.7566 15.4698.191 1.7864 1.6703 2.7162 3.0581 3.4364 5.1289.5374 1.5452.6012 2.3223.7101 8.6431l.1197 6.9454h-5.8355l-.0984-6.5485c-.1064-7.0802-.1853-7.5208-1.6619-9.272-2.2718-2.6943-6.7377-2.6943-9.0095 0-1.3828 1.64-1.4483 2.056-1.4483 9.1974v6.623h-5.8209v-6.1696c0-7.4464-.1657-8.2517-2.0628-10.0262-2.4622-2.3031-5.583-2.3031-8.0452 0-1.8971 1.7745-2.0628 2.5798-2.0628 10.0262v6.1697h-5.8208zM28.856 32.2114l-8.266-8.266-3.4507 3.4373-3.4505 3.4374-1.5782-1.6273c-.868-.895-1.5781-1.7304-1.5781-1.8564 0-.126 1.3405-1.5658 2.979-3.1996l2.979-2.9706 1.1882.5932c1.6405.8191 4.176.8187 5.8176-.0008l1.1899-.594 8.0016 7.9984 8.0017 7.9984-1.6433 1.658c-.9038.912-1.7065 1.658-1.7837 1.658-.0773 0-3.8602-3.7197-8.4065-8.266zM18.3533 18.2308c-2.1537-1.891-1.4937-5.2954 1.182-6.097 3.7203-1.1147 6.218 3.5215 3.2847 6.097-.769.675-1.1535.8155-2.2334.8155s-1.4644-.1404-2.2333-.8155zm50.5354-6.0854c-2.9333-2.5756-.4357-7.2117 3.2847-6.097 2.6757.8016 3.3356 4.206 1.182 6.097-.769.675-1.1535.8155-2.2334.8155s-1.4644-.1404-2.2333-.8156zm26.723 0c-2.9334-2.5756-.4357-7.2117 3.2846-6.097 2.6757.8016 3.3356 4.206 1.182 6.097-.769.675-1.1534.8155-2.2333.8155-1.08 0-1.4645-.1404-2.2334-.8156zm63.5 0c-2.1537-1.891-1.4938-5.2954 1.1819-6.097 3.7203-1.1147 6.218 3.5214 3.2847 6.097-.769.675-1.1534.8155-2.2333.8155-1.08 0-1.4645-.1404-2.2334-.8156z"/></svg>